Coordinates
version=1
nRows=12
nColumns=24
inDegrees=yes

Units are S.I. units (second, meters, Newtons, ...)
Angles are in degrees.

endheader
time	pelvis_tilt	pelvis_list	pelvis_rotation	pelvis_tx	pelvis_ty	pelvis_tz	hip_flexion_r	hip_adduction_r	hip_rotation_r	knee_angle_r	ankle_angle_r	subtalar_angle_r	mtp_angle_r	hip_flexion_l	hip_adduction_l	hip_rotation_l	knee_angle_l	ankle_angle_l	subtalar_angle_l	mtp_angle_l	lumbar_extension	lumbar_bending	lumbar_rotation
      1.27516667	     -1.17032008	      3.68377445	     -4.12343195	      0.22628537	      0.90827077	      0.30733567	     16.18919845	     -7.33798756	     -9.04847670	    -71.70247137	     -3.32726446	      4.38726536	      8.83813616	     13.61081865	      6.95811554	     -5.52837020	    -18.77625677	      7.94758220	     -7.81999390	      3.41039735	     -5.35551044	     -7.47283923	      3.56339289
      1.27933333	     -1.18050970	      3.53385410	     -3.98686839	      0.23142749	      0.90940376	      0.30706326	     16.80962978	     -7.13757987	     -9.21297213	    -71.38509643	     -2.63078227	      4.29597580	      8.80142466	     12.98308183	      6.87576811	     -5.38694955	    -18.25036521	      7.98164932	     -7.69373055	      3.42481950	     -5.40341873	     -7.27893842	      3.39026023
      1.28350000	     -1.14167525	      3.37944785	     -3.83929572	      0.23663420	      0.91061613	      0.30676144	     17.33828560	     -6.94396451	     -9.39514100	    -70.97053848	     -1.97782485	      4.32057038	      8.72766205	     12.26990629	      6.80060499	     -5.20017711	    -17.66329299	      8.02729588	     -7.61357649	      3.44749025	     -5.48024229	     -7.10776486	      3.06934291
      1.28766667	     -1.13297279	      3.21341849	     -3.67857698	      0.24176818	      0.91173994	      0.30645351	     17.89225448	     -6.72622591	     -9.57857857	    -70.50183182	     -1.33726571	      4.25906181	      8.68313367	     11.61394309	      6.70356525	     -5.01709991	    -17.11501041	      8.03806521	     -7.50170921	      3.46337772	     -5.55853514	     -6.89357705	      2.86604361
      1.29183333	     -1.08117397	      3.04349936	     -3.51297859	      0.24694824	      0.91292492	      0.30613781	     18.36692477	     -6.51100250	     -9.77140314	    -69.94411408	     -0.75721206	      4.26323016	      8.62268755	     10.88714233	      6.60692689	     -4.81175811	    -16.51977346	      8.06468005	     -7.42058451	      3.48304870	     -5.66078223	     -6.69422930	      2.58205659
      1.29600000	     -1.06332084	      2.86780826	     -3.32589012	      0.25211204	      0.91401367	      0.30579855	     18.85876925	     -6.28975276	     -9.98597362	    -69.32552571	     -0.16554322	      4.19513298	      8.59421336	     10.22251335	      6.49208727	     -4.64355978	    -15.97043608	      8.04884703	     -7.30326206	      3.49420106	     -5.70421456	     -6.47628313	      2.40983360
      1.30016667	     -0.95561185	      2.69389748	     -3.14536367	      0.25728897	      0.91522221	      0.30543412	     19.22867804	     -6.08236892	    -10.19526266	    -68.62722326	      0.32555301	      4.23827927	      8.51433225	      9.41626004	      6.39726085	     -4.38790862	    -15.32807962	      8.07345119	     -7.27122115	      3.51734127	     -5.88758402	     -6.27041682	      2.02967759
      1.30433333	     -0.88949065	      2.52810295	     -2.94163352	      0.26243593	      0.91631789	      0.30505904	     19.62908364	     -5.87939938	    -10.41514789	    -67.87971245	      0.85164654	      4.21987774	      8.37337407	      8.67308126	      6.30212894	     -4.12675145	    -14.70940484	      8.00901862	     -7.26796373	      3.55232550	     -6.01143115	     -6.06745933	      1.68023024
      1.30850000	     -0.80379278	      2.33205655	     -2.73633916	      0.26758610	      0.91741268	      0.30468667	     19.97971131	     -5.64068669	    -10.63753518	    -67.04789132	      1.30707729	      4.22123585	      8.30355381	      7.92038711	      6.16269409	     -3.90698985	    -14.12270279	      8.03533900	     -7.16634556	      3.57230853	     -6.15687663	     -5.81599761	      1.47749212
      1.31266667	     -0.70075237	      2.14965445	     -2.52548553	      0.27272588	      0.91848683	      0.30430639	     20.29494741	     -5.42016377	    -10.86069309	    -66.16063271	      1.75073371	      4.21547177	      8.22562556	      7.14272264	      6.03634405	     -3.67312076	    -13.51253356	      8.01831007	     -7.09574756	      3.59231766	     -6.32380953	     -5.58844065	      1.20448913
      1.31683333	     -0.59646826	      1.96640151	     -2.30703058	      0.27785556	      0.91951233	      0.30392272	     20.59009321	     -5.19849273	    -11.08542887	    -65.21360891	      2.16751476	      4.20788363	      8.14845458	      6.36832949	      5.90312375	     -3.43441043	    -12.90652649	      7.99789832	     -7.03230702	      3.61183180	     -6.48842862	     -5.35897715	      0.93968338
      1.32100000	     -0.48861053	      1.80359218	     -2.08076366	      0.28297192	      0.92048485	      0.30351540	     20.86882888	     -5.00522675	    -11.31224236	    -64.22252708	      2.58162523	      4.19607390	      7.99132672	      5.58219206	      5.79250300	     -3.16034782	    -12.27113536	      7.91213181	     -7.04921427	      3.64718429	     -6.65398454	     -5.15170706	      0.58965035
